<?xml version="1.0" encoding="UTF-8"?>
<svg width="400px" height="400px" viewBox="0 0 400 400" version="1.1" xmlns="http://www.w3.org/2000/svg" xmlns:xlink="http://www.w3.org/1999/xlink">
    <!-- Generator: Sketch 58 (84663) - https://sketch.com -->
    <title>logo-only-label copy</title>
    <desc>Created with Sketch.</desc>
    <g id="logo-only-label-copy" stroke="none" stroke-width="1" fill="none" fill-rule="evenodd">
        <rect fill="#000000" x="0" y="0" width="400" height="400"></rect>
        <g id="Group" transform="translate(108.000000, 181.000000)" fill="#FFFFFF" fill-rule="nonzero">
            <path d="M29.0480226,46.5159236 L29.0480226,41.9923567 L28.8766478,41.9923567 C28.648147,42.3337597 28.3054009,42.7462821 27.8483992,43.2299363 C27.3913976,43.7135905 26.6630621,44.3394866 25.663371,45.1076433 C24.6636799,45.8758 23.3212576,46.515921 21.636064,47.0280255 C19.9508704,47.5401299 18.0800479,47.7961783 16.0235405,47.7961783 C10.7108962,47.7961783 6.7121917,46.5301613 4.02730697,43.9980892 C1.34242223,41.4660171 0,38.3223118 0,34.566879 C0,30.6976452 1.17104918,27.7246388 3.51318267,25.6477707 C5.77166854,23.6450764 9.54395346,21.9730859 14.8301442,20.6317527 L16.4389402,20.2281259 C20.8955156,19.0900502 23.8417683,18.1369465 25.2777778,17.3687898 C26.8201584,16.5437326 27.5913371,15.3346152 27.5913371,13.7414013 C27.5913371,12.2050879 26.8915638,10.9248459 25.4919962,9.90063694 C24.0924287,8.876428 22.021671,8.36433121 19.279661,8.36433121 C16.1377746,8.36433121 13.8385195,9.07557675 12.3818267,10.4980892 C10.925134,11.9206016 9.85405239,13.8551895 9.16854991,16.3019108 L0.856873823,13.143949 C1.82800234,9.27471526 3.85591678,6.11678506 6.94067797,3.67006369 C10.0254392,1.22334233 14.0527058,0 19.0225989,0 C24.5066188,0 28.9337559,1.39404126 32.3041431,4.18216561 C35.6745303,6.97028995 37.3596987,11.3231127 37.3596987,17.2407643 L37.3596987,46.5159236 L29.0480226,46.5159236 Z M17.3945386,27.3974522 C14.195527,28.1940592 12.067645,29.1044535 11.0108286,30.1286624 C9.95401229,31.1528714 9.42561205,32.4046635 9.42561205,33.8840764 C9.42561205,37.5257082 11.9105213,39.3464968 16.8804143,39.3464968 C20.5364276,39.3464968 23.2926775,38.6068015 25.1492467,37.1273885 C27.0058159,35.6479756 27.9340866,33.8556369 27.9340866,31.7503185 L27.9340866,22.7031847 L27.7627119,22.7031847 C27.534211,23.1583887 27.2343082,23.5566862 26.8629944,23.8980892 C26.4916805,24.2394922 25.5205665,24.7231391 23.9496234,25.3490446 C22.3786802,25.9749501 20.1936738,26.6577458 17.3945386,27.3974522 Z M48.9274953,30.555414 L48.9274953,1.28025478 L58.6958569,1.28025478 L58.6958569,29.4458599 C58.6958569,32.8029892 59.3099436,35.1500995 60.5381356,36.4872611 C61.7663275,37.8244228 63.8085231,38.4929936 66.6647834,38.4929936 C69.5210438,38.4929936 71.7917367,37.6963986 73.4769303,36.1031847 C75.1621239,34.5099708 76.0047081,32.0632861 76.0047081,28.7630573 L76.0047081,1.28025478 L85.7730697,1.28025478 L85.7730697,46.5159236 L76.3474576,46.5159236 L76.3474576,42.1630573 L76.1760829,42.1630573 C73.4911981,45.9184901 69.5781801,47.7961783 64.4369115,47.7961783 C59.2385176,47.7961783 55.3540618,46.2883378 52.7834275,43.2726115 C50.2127932,40.2568851 48.9274953,36.0178617 48.9274953,30.555414 Z M95.1986817,31.4089172 L104.110169,29.2751592 C104.909922,36.1601194 108.565881,39.6025478 115.078154,39.6025478 C118.10579,39.6025478 120.46217,39.0762261 122.147363,38.0235669 C123.832557,36.9709077 124.675141,35.5626327 124.675141,33.7987261 C124.675141,32.0917112 123.903963,30.8399191 122.361582,30.0433121 C120.870614,29.2732587 117.644833,28.1841992 112.684147,26.7761026 L112.164783,26.6292994 C106.852139,25.1498864 102.981964,23.4002224 100.554143,21.3802548 C98.1263218,19.3602871 96.9124294,16.7002288 96.9124294,13.4 C96.9124294,9.7583682 98.3976625,6.61466291 101.368173,3.96878981 C104.338684,1.32291671 108.423075,0 113.621469,0 C123.61838,0 129.816372,4.40972236 132.215631,13.2292994 L123.989642,15.6191083 C122.275886,10.6118646 118.819863,8.10828025 113.621469,8.10828025 C111.165085,8.10828025 109.251419,8.59192722 107.880414,9.55923567 C106.509409,10.5265441 105.823917,11.664537 105.823917,12.9732484 C105.823917,14.4526613 106.580815,15.5764293 108.094633,16.344586 L108.393949,16.4891099 C109.957019,17.2111279 113.207486,18.2736874 118.145428,19.6768132 L119.191149,19.9719745 C124.675169,21.5082879 128.431095,23.3575263 130.45904,25.5197452 C132.486984,27.6819641 133.500942,30.4984964 133.500942,33.9694268 C133.500942,37.5541581 131.972865,40.754763 128.916667,43.5713376 C125.860468,46.3879122 121.361925,47.7961783 115.420904,47.7961783 C109.194256,47.7961783 104.424373,46.2172132 101.111111,43.0592357 C97.7978491,39.9012581 95.827059,36.0178574 95.1986817,31.4089172 Z M160.149718,0 C165.462362,0 169.546753,1.87768823 172.403013,5.63312102 L172.574388,5.63312102 L172.574388,1.28025478 L182,1.28025478 L182,46.7719745 C182,53.3155317 180.15774,58.3227003 176.473164,61.7936306 C172.788588,65.2645609 167.975861,67 162.03484,67 C157.350573,67 153.408993,65.9331317 150.209981,63.7993631 C147.01097,61.6655944 144.697433,58.863287 143.269303,55.3923567 L150.809793,50.6127389 C152.009422,53.2301617 153.466093,55.1931994 155.179849,56.5019108 C156.893606,57.8106223 159.17858,58.4649682 162.03484,58.4649682 C165.176726,58.4649682 167.661636,57.6114735 169.489642,55.9044586 C171.317649,54.1974437 172.231638,51.6085099 172.231638,48.1375796 L172.231638,42.333758 L172.060264,42.333758 C171.03201,43.8131709 169.489652,45.0934129 167.433145,46.1745223 C165.376638,47.2556317 163.005977,47.7961783 160.321092,47.7961783 C154.437196,47.7961783 149.567345,45.6624417 145.711394,41.3949045 C141.855442,37.1273672 139.927495,31.2951538 139.927495,23.8980892 C139.927495,16.6148256 141.912566,10.811062 145.882768,6.4866242 C149.85297,2.16218645 154.608572,0 160.149718,0 Z M161.777778,8.7910828 C158.121765,8.7910828 155.194142,10.0997746 152.994821,12.7171975 C150.795501,15.3346203 149.695857,19.0615469 149.695857,23.8980892 C149.695857,28.7346314 150.78122,32.461558 152.951977,35.0789809 C155.122735,37.6964037 158.064639,39.0050955 161.777778,39.0050955 C164.862539,39.0050955 167.37601,38.0804763 169.318267,36.2312102 C171.260524,34.381944 172.231638,32.148633 172.231638,29.5312102 L172.231638,29.5312102 L172.231638,18.6063694 C172.231638,15.9320461 171.274806,13.6276105 169.361111,11.6929936 C167.447417,9.75837674 164.919664,8.7910828 161.777778,8.7910828 Z" id="ausg"></path>
        </g>
    </g>
</svg>