<?xml version="1.0" encoding="UTF-8"?>
<svg width="400px" height="400px" viewBox="0 0 400 400" version="1.1" xmlns="http://www.w3.org/2000/svg" xmlns:xlink="http://www.w3.org/1999/xlink">
    <!-- Generator: Sketch 58 (84663) - https://sketch.com -->
    <title>logo-black copy</title>
    <desc>Created with Sketch.</desc>
    <g id="logo-black-copy" stroke="none" stroke-width="1" fill="none" fill-rule="evenodd">
        <rect fill="#000000" x="0" y="0" width="400" height="400"></rect>
        <g id="Group" transform="translate(39.000000, 160.000000)">
            <path d="M134.048023,66.5159236 L134.048023,61.9923567 L133.876648,61.9923567 C133.648147,62.3337597 133.305401,62.7462821 132.848399,63.2299363 C132.391398,63.7135905 131.663062,64.3394866 130.663371,65.1076433 C129.66368,65.8758 128.321258,66.515921 126.636064,67.0280255 C124.95087,67.5401299 123.080048,67.7961783 121.02354,67.7961783 C115.710896,67.7961783 111.712192,66.5301613 109.027307,63.9980892 C106.342422,61.4660171 105,58.3223118 105,54.566879 C105,50.6976452 106.171049,47.7246388 108.513183,45.6477707 C110.771669,43.6450764 114.543953,41.9730859 119.830144,40.6317527 L121.43894,40.2281259 C125.895516,39.0900502 128.841768,38.1369465 130.277778,37.3687898 C131.820158,36.5437326 132.591337,35.3346152 132.591337,33.7414013 C132.591337,32.2050879 131.891564,30.9248459 130.491996,29.9006369 C129.092429,28.876428 127.021671,28.3643312 124.279661,28.3643312 C121.137775,28.3643312 118.83852,29.0755768 117.381827,30.4980892 C115.925134,31.9206016 114.854052,33.8551895 114.16855,36.3019108 L105.856874,33.143949 C106.828002,29.2747153 108.855917,26.1167851 111.940678,23.6700637 C115.025439,21.2233423 119.052706,20 124.022599,20 C129.506619,20 133.933756,21.3940413 137.304143,24.1821656 C140.67453,26.9702899 142.359699,31.3231127 142.359699,37.2407643 L142.359699,66.5159236 L134.048023,66.5159236 Z M122.394539,47.3974522 C119.195527,48.1940592 117.067645,49.1044535 116.010829,50.1286624 C114.954012,51.1528714 114.425612,52.4046635 114.425612,53.8840764 C114.425612,57.5257082 116.910521,59.3464968 121.880414,59.3464968 C125.536428,59.3464968 128.292677,58.6068015 130.149247,57.1273885 C132.005816,55.6479756 132.934087,53.8556369 132.934087,51.7503185 L132.934087,42.7031847 L132.762712,42.7031847 C132.534211,43.1583887 132.234308,43.5566862 131.862994,43.8980892 C131.491681,44.2394922 130.520567,44.7231391 128.949623,45.3490446 C127.37868,45.9749501 125.193674,46.6577458 122.394539,47.3974522 Z M153.927495,50.555414 L153.927495,21.2802548 L163.695857,21.2802548 L163.695857,49.4458599 C163.695857,52.8029892 164.309944,55.1500995 165.538136,56.4872611 C166.766328,57.8244228 168.808523,58.4929936 171.664783,58.4929936 C174.521044,58.4929936 176.791737,57.6963986 178.47693,56.1031847 C180.162124,54.5099708 181.004708,52.0632861 181.004708,48.7630573 L181.004708,21.2802548 L190.77307,21.2802548 L190.77307,66.5159236 L181.347458,66.5159236 L181.347458,62.1630573 L181.176083,62.1630573 C178.491198,65.9184901 174.57818,67.7961783 169.436911,67.7961783 C164.238518,67.7961783 160.354062,66.2883378 157.783427,63.2726115 C155.212793,60.2568851 153.927495,56.0178617 153.927495,50.555414 Z M200.198682,51.4089172 L209.110169,49.2751592 C209.909922,56.1601194 213.565881,59.6025478 220.078154,59.6025478 C223.10579,59.6025478 225.46217,59.0762261 227.147363,58.0235669 C228.832557,56.9709077 229.675141,55.5626327 229.675141,53.7987261 C229.675141,52.0917112 228.903963,50.8399191 227.361582,50.0433121 C225.870614,49.2732587 222.644833,48.1841992 217.684147,46.7761026 L217.164783,46.6292994 C211.852139,45.1498864 207.981964,43.4002224 205.554143,41.3802548 C203.126322,39.3602871 201.912429,36.7002288 201.912429,33.4 C201.912429,29.7583682 203.397662,26.6146629 206.368173,23.9687898 C209.338684,21.3229167 213.423075,20 218.621469,20 C228.61838,20 234.816372,24.4097224 237.215631,33.2292994 L228.989642,35.6191083 C227.275886,30.6118646 223.819863,28.1082803 218.621469,28.1082803 C216.165085,28.1082803 214.251419,28.5919272 212.880414,29.5592357 C211.509409,30.5265441 210.823917,31.664537 210.823917,32.9732484 C210.823917,34.4526613 211.580815,35.5764293 213.094633,36.344586 L213.393949,36.4891099 C214.957019,37.2111279 218.207486,38.2736874 223.145428,39.6768132 L224.191149,39.9719745 C229.675169,41.5082879 233.431095,43.3575263 235.45904,45.5197452 C237.486984,47.6819641 238.500942,50.4984964 238.500942,53.9694268 C238.500942,57.5541581 236.972865,60.754763 233.916667,63.5713376 C230.860468,66.3879122 226.361925,67.7961783 220.420904,67.7961783 C214.194256,67.7961783 209.424373,66.2172132 206.111111,63.0592357 C202.797849,59.9012581 200.827059,56.0178574 200.198682,51.4089172 Z M265.149718,20 C270.462362,20 274.546753,21.8776882 277.403013,25.633121 L277.574388,25.633121 L277.574388,21.2802548 L287,21.2802548 L287,66.7719745 C287,73.3155317 285.15774,78.3227003 281.473164,81.7936306 C277.788588,85.2645609 272.975861,87 267.03484,87 C262.350573,87 258.408993,85.9331317 255.209981,83.7993631 C252.01097,81.6655944 249.697433,78.863287 248.269303,75.3923567 L255.809793,70.6127389 C257.009422,73.2301617 258.466093,75.1931994 260.179849,76.5019108 C261.893606,77.8106223 264.17858,78.4649682 267.03484,78.4649682 C270.176726,78.4649682 272.661636,77.6114735 274.489642,75.9044586 C276.317649,74.1974437 277.231638,71.6085099 277.231638,68.1375796 L277.231638,62.333758 L277.060264,62.333758 C276.03201,63.8131709 274.489652,65.0934129 272.433145,66.1745223 C270.376638,67.2556317 268.005977,67.7961783 265.321092,67.7961783 C259.437196,67.7961783 254.567345,65.6624417 250.711394,61.3949045 C246.855442,57.1273672 244.927495,51.2951538 244.927495,43.8980892 C244.927495,36.6148256 246.912566,30.811062 250.882768,26.4866242 C254.85297,22.1621864 259.608572,20 265.149718,20 Z M266.777778,28.7910828 C263.121765,28.7910828 260.194142,30.0997746 257.994821,32.7171975 C255.795501,35.3346203 254.695857,39.0615469 254.695857,43.8980892 C254.695857,48.7346314 255.78122,52.461558 257.951977,55.0789809 C260.122735,57.6964037 263.064639,59.0050955 266.777778,59.0050955 C269.862539,59.0050955 272.37601,58.0804763 274.318267,56.2312102 C276.260524,54.381944 277.231638,52.148633 277.231638,49.5312102 L277.231638,49.5312102 L277.231638,38.6063694 C277.231638,35.9320461 276.274806,33.6276105 274.361111,31.6929936 C272.447417,29.7583767 269.919664,28.7910828 266.777778,28.7910828 Z" id="ausg" fill="#FFFFFF" fill-rule="nonzero"></path>
            <path d="M84.8367371,4.21071625 C84.6338125,3.27898598 83.7035093,2.36119843 82.7605744,2.16210938 C77.2825957,1 72.9955888,1 68.7238382,1 C51.2990657,1 40.8101463,10.1473961 32.9602304,22.25 L15.926871,22.25 C13.1817299,22.2522697 9.95560676,24.2224083 8.72542789,26.6477928 L0.423730099,43.0501041 C0.1898009,43.5136185 0,44.3101368 0,44.828125 C0,46.954195 1.68774066,48.6930401 3.81049226,48.8066008 L4.03372025,48.8125 L19.5888637,48.8125 L17.8099519,52.3685417 C17.5059751,52.9773197 17.2592504,54.0223751 17.2592504,54.7011909 C17.2592504,55.916153 17.9687481,57.595602 18.8431118,58.4496746 L27.8754693,67.3679886 C28.7426149,68.2293568 30.4440972,68.9307079 31.6736198,68.9336262 C32.3583467,68.9328156 33.4118483,68.6881695 34.0253793,68.3874283 L37.6184728,66.63097 L37.6184728,82.015625 C37.6258548,84.2077122 39.4319982,85.9927044 41.6500604,86 C42.1707415,86 42.9707925,85.8114491 43.4356981,85.5799351 L60.0156351,77.3804817 C62.390968,76.2077424 64.3337119,73.1899276 64.4605889,70.5379414 L64.4671798,70.2583466 L64.4671798,53.4127865 L65.3353994,52.8535096 C76.986966,45.2411767 85.7808278,35.0837885 85.9935794,18.7089353 L85.9975246,18.0996094 C86.0109764,13.8611851 86.0109764,9.6328125 84.8367371,4.21071625 Z M22.2464044,43.5 L6.20568561,43.5 L13.5280304,29.0234051 C13.9409335,28.2205639 15.015597,27.5660667 15.926871,27.5625 L30.2355951,27.5625 L22.2464044,43.5 L22.2464044,43.5 Z M59.096815,70.2583466 C59.0945184,71.1631641 58.4278366,72.2252426 57.6084282,72.6290951 L42.993923,79.8574219 L42.993923,63.9996872 L59.096815,56.1072979 L59.096815,56.1072979 L59.096815,70.2583466 Z M61.5560245,48.9619789 L50.4976184,54.398874 C43.6488679,57.7558878 35.9687862,61.5101789 31.6701749,63.6110744 L22.6292871,54.7209702 L37.4504899,25.140358 L37.4504899,25.140358 C45.8849007,12.1230469 55.5388274,6.3125 68.7238382,6.3125 L70.1635948,6.31418821 C73.2711601,6.32516157 76.3307696,6.4074618 79.9165138,7.02471352 C80.645533,11.1535416 80.6320812,14.5302734 80.6187935,18.0979881 C80.6223571,31.0605011 74.7426758,40.5880795 61.5560245,48.9619789 Z M61.8079987,14.28125 C55.8734807,14.28125 51.0570983,19.0412292 51.0570983,24.90625 C51.0570983,30.7712708 55.8734807,35.53125 61.8079987,35.53125 C67.7425167,35.53125 72.5588991,30.7712708 72.5588991,24.90625 C72.5525013,19.0477142 67.7359549,14.2875729 61.8079987,14.28125 Z M61.8079987,30.21875 C58.8407397,30.21875 56.4325485,27.8387604 56.4325485,24.90625 C56.4325485,21.9737396 58.8407397,19.59375 61.8079987,19.59375 C64.7752577,19.59375 67.1834489,21.9737396 67.1834489,24.90625 C67.1834489,27.8387604 64.7752577,30.21875 61.8079987,30.21875 Z" id="r" fill="#FFFFFF" fill-rule="nonzero" transform="translate(43.000000, 43.500000) rotate(-90.000000) translate(-43.000000, -43.500000) "></path>
            <path d="M68,69.000509 C79.959924,81.0349653 145.877582,113.067105 236.670755,61.9388843 C327.463928,10.8106633 340.31999,55.7696696 300.969942,67.0079204" id="Path-2" stroke="#E8590C" stroke-width="7" stroke-linecap="round"></path>
            <path d="M265.137959,19 C268.664963,19 272.618602,21.1714286 276.998875,25.5142857 L276.762469,34.8039158 C276.314704,33.3062372 275.49754,31.9525566 274.310969,30.7428571 C272.405249,28.7999903 269.88803,27.8285714 266.759235,27.8285714 C263.118456,27.8285714 260.203032,29.142844 258.012876,31.7714286 C255.82272,34.4000131 254.727658,38.1428329 254.727658,43 C254.727658,47.8571671 255.808498,51.5999869 257.970211,54.2285714 C260.131923,56.857156 263.061569,58.1714286 266.759235,58.1714286 C269.831142,58.1714286 272.33414,57.2428664 274.268304,55.3857143 C275.148372,54.5406876 275.828216,53.6158108 276.30784,52.6110775 L276.069189,61.8706292 C275.04522,63.3563509 274.438975,64.2857089 272.391037,65.3714286 C270.343099,66.4571483 267.982316,67 265.308619,67 C259.44924,67 254.599682,64.8571643 250.759797,60.5714286 C246.919913,56.2856929 245,50.4286086 245,43 C245,35.6856777 246.9768,29.8571646 250.930458,25.5142857 C254.884117,21.1714069 259.619903,19 265.137959,19 Z" id="Combined-Shape" fill="#FFFFFF"></path>
        </g>
    </g>
</svg>