<?xml version="1.0" encoding="UTF-8"?>
<svg width="754px" height="400px" viewBox="0 0 754 400" version="1.1" xmlns="http://www.w3.org/2000/svg" xmlns:xlink="http://www.w3.org/1999/xlink">
    <!-- Generator: Sketch 58 (84663) - https://sketch.com -->
    <title>logo-with-description copy</title>
    <desc>Created with Sketch.</desc>
    <g id="logo-with-description-copy" stroke="none" stroke-width="1" fill="none" fill-rule="evenodd">
        <rect fill="#000000" x="0" y="0" width="754" height="400"></rect>
        <g id="Group" transform="translate(69.000000, 152.000000)" fill="#FFFFFF" fill-rule="nonzero">
            <path d="M32.0480226,75.5159236 L32.0480226,70.9923567 L31.8766478,70.9923567 C31.648147,71.3337597 31.3054009,71.7462821 30.8483992,72.2299363 C30.3913976,72.7135905 29.6630621,73.3394866 28.663371,74.1076433 C27.6636799,74.8758 26.3212576,75.515921 24.636064,76.0280255 C22.9508704,76.5401299 21.0800479,76.7961783 19.0235405,76.7961783 C13.7108962,76.7961783 9.7121917,75.5301613 7.02730697,72.9980892 C4.34242223,70.4660171 3,67.3223118 3,63.566879 C3,59.6976452 4.17104918,56.7246388 6.51318267,54.6477707 C8.77166854,52.6450764 12.5439535,50.9730859 17.8301442,49.6317527 L19.4389402,49.2281259 C23.8955156,48.0900502 26.8417683,47.1369465 28.2777778,46.3687898 C29.8201584,45.5437326 30.5913371,44.3346152 30.5913371,42.7414013 C30.5913371,41.2050879 29.8915638,39.9248459 28.4919962,38.9006369 C27.0924287,37.876428 25.021671,37.3643312 22.279661,37.3643312 C19.1377746,37.3643312 16.8385195,38.0755768 15.3818267,39.4980892 C13.925134,40.9206016 12.8540524,42.8551895 12.1685499,45.3019108 L3.85687382,42.143949 C4.82800234,38.2747153 6.85591678,35.1167851 9.94067797,32.6700637 C13.0254392,30.2233423 17.0527058,29 22.0225989,29 C27.5066188,29 31.9337559,30.3940413 35.3041431,33.1821656 C38.6745303,35.9702899 40.3596987,40.3231127 40.3596987,46.2407643 L40.3596987,75.5159236 L32.0480226,75.5159236 Z M20.3945386,56.3974522 C17.195527,57.1940592 15.067645,58.1044535 14.0108286,59.1286624 C12.9540123,60.1528714 12.4256121,61.4046635 12.4256121,62.8840764 C12.4256121,66.5257082 14.9105213,68.3464968 19.8804143,68.3464968 C23.5364276,68.3464968 26.2926775,67.6068015 28.1492467,66.1273885 C30.0058159,64.6479756 30.9340866,62.8556369 30.9340866,60.7503185 L30.9340866,51.7031847 L30.7627119,51.7031847 C30.534211,52.1583887 30.2343082,52.5566862 29.8629944,52.8980892 C29.4916805,53.2394922 28.5205665,53.7231391 26.9496234,54.3490446 C25.3786802,54.9749501 23.1936738,55.6577458 20.3945386,56.3974522 Z M51.9274953,59.555414 L51.9274953,30.2802548 L61.6958569,30.2802548 L61.6958569,58.4458599 C61.6958569,61.8029892 62.3099436,64.1500995 63.5381356,65.4872611 C64.7663275,66.8244228 66.8085231,67.4929936 69.6647834,67.4929936 C72.5210438,67.4929936 74.7917367,66.6963986 76.4769303,65.1031847 C78.1621239,63.5099708 79.0047081,61.0632861 79.0047081,57.7630573 L79.0047081,30.2802548 L88.7730697,30.2802548 L88.7730697,75.5159236 L79.3474576,75.5159236 L79.3474576,71.1630573 L79.1760829,71.1630573 C76.4911981,74.9184901 72.5781801,76.7961783 67.4369115,76.7961783 C62.2385176,76.7961783 58.3540618,75.2883378 55.7834275,72.2726115 C53.2127932,69.2568851 51.9274953,65.0178617 51.9274953,59.555414 Z M98.1986817,60.4089172 L107.110169,58.2751592 C107.909922,65.1601194 111.565881,68.6025478 118.078154,68.6025478 C121.10579,68.6025478 123.46217,68.0762261 125.147363,67.0235669 C126.832557,65.9709077 127.675141,64.5626327 127.675141,62.7987261 C127.675141,61.0917112 126.903963,59.8399191 125.361582,59.0433121 C123.870614,58.2732587 120.644833,57.1841992 115.684147,55.7761026 L115.164783,55.6292994 C109.852139,54.1498864 105.981964,52.4002224 103.554143,50.3802548 C101.126322,48.3602871 99.9124294,45.7002288 99.9124294,42.4 C99.9124294,38.7583682 101.397662,35.6146629 104.368173,32.9687898 C107.338684,30.3229167 111.423075,29 116.621469,29 C126.61838,29 132.816372,33.4097224 135.215631,42.2292994 L126.989642,44.6191083 C125.275886,39.6118646 121.819863,37.1082803 116.621469,37.1082803 C114.165085,37.1082803 112.251419,37.5919272 110.880414,38.5592357 C109.509409,39.5265441 108.823917,40.664537 108.823917,41.9732484 C108.823917,43.4526613 109.580815,44.5764293 111.094633,45.344586 L111.393949,45.4891099 C112.957019,46.2111279 116.207486,47.2736874 121.145428,48.6768132 L122.191149,48.9719745 C127.675169,50.5082879 131.431095,52.3575263 133.45904,54.5197452 C135.486984,56.6819641 136.500942,59.4984964 136.500942,62.9694268 C136.500942,66.5541581 134.972865,69.754763 131.916667,72.5713376 C128.860468,75.3879122 124.361925,76.7961783 118.420904,76.7961783 C112.194256,76.7961783 107.424373,75.2172132 104.111111,72.0592357 C100.797849,68.9012581 98.827059,65.0178574 98.1986817,60.4089172 Z M163.149718,29 C168.462362,29 172.546753,30.8776882 175.403013,34.633121 L175.574388,34.633121 L175.574388,30.2802548 L185,30.2802548 L185,75.7719745 C185,82.3155317 183.15774,87.3227003 179.473164,90.7936306 C175.788588,94.2645609 170.975861,96 165.03484,96 C160.350573,96 156.408993,94.9331317 153.209981,92.7993631 C150.01097,90.6655944 147.697433,87.863287 146.269303,84.3923567 L153.809793,79.6127389 C155.009422,82.2301617 156.466093,84.1931994 158.179849,85.5019108 C159.893606,86.8106223 162.17858,87.4649682 165.03484,87.4649682 C168.176726,87.4649682 170.661636,86.6114735 172.489642,84.9044586 C174.317649,83.1974437 175.231638,80.6085099 175.231638,77.1375796 L175.231638,71.333758 L175.060264,71.333758 C174.03201,72.8131709 172.489652,74.0934129 170.433145,75.1745223 C168.376638,76.2556317 166.005977,76.7961783 163.321092,76.7961783 C157.437196,76.7961783 152.567345,74.6624417 148.711394,70.3949045 C144.855442,66.1273672 142.927495,60.2951538 142.927495,52.8980892 C142.927495,45.6148256 144.912566,39.811062 148.882768,35.4866242 C152.85297,31.1621864 157.608572,29 163.149718,29 Z M164.777778,37.7910828 C161.121765,37.7910828 158.194142,39.0997746 155.994821,41.7171975 C153.795501,44.3346203 152.695857,48.0615469 152.695857,52.8980892 C152.695857,57.7346314 153.78122,61.461558 155.951977,64.0789809 C158.122735,66.6964037 161.064639,68.0050955 164.777778,68.0050955 C167.862539,68.0050955 170.37601,67.0804763 172.318267,65.2312102 C174.260524,63.381944 175.231638,61.148633 175.231638,58.5312102 L175.231638,58.5312102 L175.231638,47.6063694 C175.231638,44.9320461 174.274806,42.6276105 172.361111,40.6929936 C170.447417,38.7583767 167.919664,37.7910828 164.777778,37.7910828 Z" id="ausg"></path>
        </g>
        <path d="M328.552,199 L327.272,195.32 L318.728,195.32 L317.448,199 L313.16,199 L321.256,176.6 L324.936,176.6 L333,199 L328.552,199 Z M322.984,183 L319.944,191.736 L326.056,191.736 L323.048,183 L322.984,183 Z M338.472,199 L334.12,176.6 L338.504,176.6 L341.384,191.832 L341.48,191.832 L346.632,176.6 L348.808,176.6 L353.96,191.832 L354.056,191.832 L356.936,176.6 L361.224,176.6 L356.872,199 L352.392,199 L347.784,185.08 L347.592,185.08 L342.952,199 L338.472,199 Z M363.304,191.512 L367.848,190.52 C368.125335,192.269342 368.578664,193.533329 369.208,194.312 C369.837336,195.090671 370.86666,195.48 372.296,195.48 C373.512006,195.48 374.482663,195.261336 375.208,194.824 C375.933337,194.386664 376.296,193.741338 376.296,192.888 C376.296,191.991996 375.949337,191.304002 375.256,190.824 C374.562663,190.343998 372.978679,189.720004 370.504,188.952 C368.178655,188.226663 366.530672,187.346672 365.56,186.312 C364.589328,185.277328 364.104,184.002674 364.104,182.488 C364.104,180.738658 364.781327,179.240006 366.136,177.992 C367.490673,176.743994 369.330655,176.12 371.656,176.12 C373.768011,176.12 375.586659,176.631995 377.112,177.656 C378.637341,178.680005 379.591998,180.205323 379.976,182.232 L375.784,183.288 C375.122663,181.175989 373.746677,180.12 371.656,180.12 C370.546661,180.12 369.720003,180.333331 369.176,180.76 C368.631997,181.186669 368.36,181.751996 368.36,182.456 C368.36,183.117337 368.66933,183.623998 369.288,183.976 L369.471411,184.073755 C370.190413,184.436643 371.718597,185.017387 374.056,185.816 C376.530679,186.669338 378.226662,187.591995 379.144,188.584 C380.061338,189.576005 380.52,190.914658 380.52,192.6 C380.52,194.58401 379.773341,196.22666 378.28,197.528 C376.786659,198.82934 374.792012,199.48 372.296,199.48 C369.757321,199.48 367.704008,198.81334 366.136,197.48 C364.567992,196.14666 363.624002,194.157347 363.304,191.512 Z M383.56,199 L383.56,176.6 L387.88,176.6 L387.88,186.008 L387.944,186.008 L395.88,176.6 L400.904,176.6 L392.52,186.488 L401.576,199 L396.36,199 L389.608,189.784 L389.544,189.784 L387.88,191.992 L387.88,199 L383.56,199 Z M403.816,199 L403.816,176.6 L412.904,176.6 C415.208012,176.6 417.069326,177.245327 418.488,178.536 C419.906674,179.826673 420.616,181.559989 420.616,183.736 C420.616,185.357341 420.194671,186.733328 419.352,187.864 C418.509329,188.994672 417.352007,189.794664 415.88,190.264 L420.648,199 L415.976,199 L411.464,190.68 L408.136,190.68 L408.136,199 L403.816,199 Z M408.136,186.936 L412.552,186.936 C415.005346,186.936 416.232,185.869344 416.232,183.736 C416.232,181.581323 415.005346,180.504 412.552,180.504 L408.136,180.504 L408.136,186.936 Z M423.688,191.704 L423.688,176.6 L428.008,176.6 L428.008,191.512 C428.008,192.728006 428.354663,193.69333 429.048,194.408 C429.741337,195.12267 430.759993,195.48 432.104,195.48 C433.448007,195.48 434.471996,195.128004 435.176,194.424 C435.880004,193.719996 436.232,192.770673 436.232,191.576 L436.232,176.6 L440.552,176.6 L440.552,191.704 C440.552,194.221346 439.784008,196.14666 438.248,197.48 C436.711992,198.81334 434.664013,199.48 432.104,199.48 C429.543987,199.48 427.501341,198.81334 425.976,197.48 C424.450659,196.14666 423.688,194.221346 423.688,191.704 Z M453.64,199.48 C450.759986,199.48 448.418676,198.482677 446.616,196.488 C444.813324,194.493323 443.912,191.48002 443.912,187.448 C443.912,183.906649 444.866657,181.133343 446.776,179.128 C448.685343,177.122657 450.962653,176.12 453.608,176.12 C455.869345,176.12 457.794659,176.80266 459.384,178.168 C460.973341,179.53334 461.927998,181.389322 462.248,183.736 L457.928,184.44 C457.394664,181.559986 455.965345,180.12 453.64,180.12 C452.167993,180.12 450.920005,180.759994 449.896,182.04 C448.871995,183.320006 448.36,185.122655 448.36,187.448 C448.36,190.17868 448.855995,192.199993 449.848,193.512 C450.840005,194.824007 452.103992,195.48 453.64,195.48 C455.026674,195.48 456.119996,195.085337 456.92,194.296 C457.720004,193.506663 458.12,192.39734 458.12,190.968 L453.96,190.968 L453.96,187.288 L462.248,187.288 L462.248,190.264 C462.248,193.101348 461.448008,195.346658 459.848,197 C458.247992,198.653342 456.178679,199.48 453.64,199.48 Z M315.08,229.704 L315.08,214.6 L319.4,214.6 L319.4,229.512 C319.4,230.728006 319.746663,231.69333 320.44,232.408 C321.133337,233.12267 322.151993,233.48 323.496,233.48 C324.840007,233.48 325.863996,233.128004 326.568,232.424 C327.272004,231.719996 327.624,230.770673 327.624,229.576 L327.624,214.6 L331.944,214.6 L331.944,229.704 C331.944,232.221346 331.176008,234.14666 329.64,235.48 C328.103992,236.81334 326.056013,237.48 323.496,237.48 C320.935987,237.48 318.893341,236.81334 317.368,235.48 C315.842659,234.14666 315.08,232.221346 315.08,229.704 Z M336.264,237 L336.264,220.04 L340.264,220.04 L340.264,221.672 L340.328,221.672 C340.797336,221.074664 341.437329,220.573335 342.248,220.168 C343.058671,219.762665 343.911996,219.56 344.808,219.56 C346.685343,219.56 348.157328,220.119994 349.224,221.24 C350.290672,222.360006 350.824,223.91199 350.824,225.896 L350.824,237 L346.664,237 L346.664,226.92 C346.664,225.746661 346.440002,224.86667 345.992,224.28 C345.543998,223.69333 344.776005,223.4 343.688,223.4 C342.663995,223.4 341.864003,223.69333 341.288,224.28 C340.711997,224.86667 340.424,225.650662 340.424,226.632 L340.424,237 L336.264,237 Z M355.144,237 L355.144,220.04 L359.304,220.04 L359.304,237 L355.144,237 Z M355.144,217.576 L355.144,213.64 L359.304,213.64 L359.304,217.576 L355.144,217.576 Z M368.648,237 L361.864,220.04 L366.184,220.04 L370.408,230.952 L370.472,230.952 L374.696,220.04 L378.952,220.04 L372.168,237 L368.648,237 Z M392.52,231.144 L395.432,233.704 C393.703991,236.221346 391.368015,237.48 388.424,237.48 C386.055988,237.48 384.125341,236.664008 382.632,235.032 C381.138659,233.399992 380.392,231.229347 380.392,228.52 C380.392,225.810653 381.133326,223.640008 382.616,222.008 C384.098674,220.375992 385.970655,219.56 388.232,219.56 C390.493345,219.56 392.354659,220.375992 393.816,222.008 C395.277341,223.640008 396.008,225.810653 396.008,228.52 L396.008,229.768 L384.616,229.768 C384.68,231.06934 385.03733,232.066663 385.688,232.76 C386.33867,233.453337 387.229328,233.8 388.36,233.8 C389.320005,233.8 390.114664,233.56 390.744,233.08 C391.373336,232.599998 391.965331,231.954671 392.52,231.144 Z M384.616,226.664 L391.976,226.664 C391.869333,225.575995 391.496003,224.728003 390.856,224.12 C390.215997,223.511997 389.341339,223.208 388.232,223.208 C387.207995,223.208 386.37067,223.538663 385.72,224.2 C385.06933,224.861337 384.701334,225.682662 384.616,226.664 Z M399.368,237 L399.368,220.04 L403.304,220.04 L403.304,221.832 L403.368,221.832 C403.688002,221.191997 404.162664,220.680002 404.792,220.296 C405.421336,219.911998 406.10933,219.72 406.856,219.72 C407.389336,219.72 407.901331,219.826666 408.392,220.04 L407.752,224.072 C407.282664,223.901332 406.845335,223.816 406.44,223.816 C404.498657,223.816 403.528,225.106654 403.528,227.688 L403.528,237 L399.368,237 Z M409.832,231.4 L413.576,230.44 C413.874668,232.808012 415.143989,233.992 417.384,233.992 C418.408005,233.992 419.223997,233.826668 419.832,233.496 C420.440003,233.165332 420.744,232.701336 420.744,232.104 C420.744,231.613331 420.509336,231.245335 420.04,231 C419.570664,230.754665 418.589341,230.418669 417.096,229.992 L416.413333,229.807111 L416.413333,229.807111 L416.168,229.736 C414.205324,229.181331 412.765338,228.525337 411.848,227.768 C410.930662,227.010663 410.472,226.002673 410.472,224.744 C410.472,223.335993 411.042661,222.120005 412.184,221.096 C413.325339,220.071995 414.88799,219.56 416.872,219.56 C420.669352,219.56 423.047995,221.223983 424.008,224.552 L420.552,225.608 C420.253332,224.797329 419.832,224.157336 419.288,223.688 C418.743997,223.218664 417.949339,222.984 416.904,222.984 C416.093329,222.984 415.448002,223.138665 414.968,223.448 C414.487998,223.757335 414.248,224.125331 414.248,224.552 C414.248,225.021336 414.530664,225.389332 415.096,225.656 L415.29104,225.7416 C415.95248,226.015201 417.30079,226.439997 419.336,227.016 C421.32001,227.549336 422.66933,228.226663 423.384,229.048 C424.09867,229.869337 424.456,230.919994 424.456,232.2 C424.456,233.56534 423.864006,234.786661 422.68,235.864 C421.495994,236.941339 419.784011,237.48 417.544,237.48 C415.197322,237.48 413.38934,236.888006 412.12,235.704 C410.85066,234.519994 410.088001,233.085342 409.832,231.4 Z M427.656,237 L427.656,220.04 L431.816,220.04 L431.816,237 L427.656,237 Z M427.656,217.576 L427.656,213.64 L431.816,213.64 L431.816,217.576 L427.656,217.576 Z M437.16,230.952 L437.16,223.56 L434.536,223.56 L434.536,220.04 L437.256,220.04 L437.256,215.88 L441.192,215.88 L441.192,220.04 L445.48,220.04 L445.48,223.56 L441.256,223.56 L441.256,230.568 C441.256,231.464004 441.405332,232.093332 441.704,232.456 C442.002668,232.818668 442.610662,233 443.528,233 L444.904,233 L444.904,237 L443.144,237 C440.861322,237 439.293338,236.520005 438.44,235.56 C437.586662,234.599995 437.16,233.064011 437.16,230.952 Z M449.992,244.2 L453.384,236.168 L446.6,220.04 L450.824,220.04 L455.208,231.528 L455.272,231.528 L459.656,220.04 L463.88,220.04 L454.12,244.2 L449.992,244.2 Z M473.16,229.512 L477.704,228.52 C477.981335,230.269342 478.434664,231.533329 479.064,232.312 C479.693336,233.090671 480.72266,233.48 482.152,233.48 C483.368006,233.48 484.338663,233.261336 485.064,232.824 C485.789337,232.386664 486.152,231.741338 486.152,230.888 C486.152,229.991996 485.805337,229.304002 485.112,228.824 C484.418663,228.343998 482.834679,227.720004 480.36,226.952 C478.034655,226.226663 476.386672,225.346672 475.416,224.312 C474.445328,223.277328 473.96,222.002674 473.96,220.488 C473.96,218.738658 474.637327,217.240006 475.992,215.992 C477.346673,214.743994 479.186655,214.12 481.512,214.12 C483.624011,214.12 485.442659,214.631995 486.968,215.656 C488.493341,216.680005 489.447998,218.205323 489.832,220.232 L485.64,221.288 C484.978663,219.175989 483.602677,218.12 481.512,218.12 C480.402661,218.12 479.576003,218.333331 479.032,218.76 C478.487997,219.186669 478.216,219.751996 478.216,220.456 C478.216,221.117337 478.52533,221.623998 479.144,221.976 L479.327411,222.073755 C480.046413,222.436643 481.574597,223.017387 483.912,223.816 C486.386679,224.669338 488.082662,225.591995 489,226.584 C489.917338,227.576005 490.376,228.914658 490.376,230.6 C490.376,232.58401 489.629341,234.22666 488.136,235.528 C486.642659,236.82934 484.648012,237.48 482.152,237.48 C479.613321,237.48 477.560008,236.81334 475.992,235.48 C474.423992,234.14666 473.480002,232.157347 473.16,229.512 Z M494.28,230.952 L494.28,223.56 L491.656,223.56 L491.656,220.04 L494.376,220.04 L494.376,215.88 L498.312,215.88 L498.312,220.04 L502.6,220.04 L502.6,223.56 L498.376,223.56 L498.376,230.568 C498.376,231.464004 498.525332,232.093332 498.824,232.456 C499.122668,232.818668 499.730662,233 500.648,233 L502.024,233 L502.024,237 L500.264,237 C497.981322,237 496.413338,236.520005 495.56,235.56 C494.706662,234.599995 494.28,233.064011 494.28,230.952 Z M505.64,230.984 L505.64,220.04 L509.8,220.04 L509.8,230.536 C509.8,231.602672 510.002665,232.359998 510.408,232.808 C510.813335,233.256002 511.463996,233.48 512.36,233.48 C513.362672,233.48 514.17333,233.218669 514.792,232.696 C515.41067,232.173331 515.72,231.346672 515.72,230.216 L515.72,220.04 L519.88,220.04 L519.88,237 L515.912,237 L515.912,235.368 L515.848,235.368 C514.802661,236.776007 513.330676,237.48 511.432,237.48 C509.469324,237.48 508.013338,236.893339 507.064,235.72 C506.114662,234.546661 505.64,232.96801 505.64,230.984 Z M534.888,230.056 L534.888,226.952 C534.888,225.927995 534.56267,225.064004 533.912,224.36 C533.26133,223.655996 532.370672,223.304 531.24,223.304 C530.023994,223.304 529.080003,223.741329 528.408,224.616 C527.735997,225.490671 527.4,226.791991 527.4,228.52 C527.4,230.226675 527.735997,231.522662 528.408,232.408 C529.080003,233.293338 530.023994,233.736 531.24,233.736 C532.370672,233.736 533.26133,233.37867 533.912,232.664 C534.56267,231.94933 534.888,231.080005 534.888,230.056 Z M535.144,237 L535.144,235.368 L535.08,235.368 C534.973333,235.517334 534.818668,235.709332 534.616,235.944 C534.413332,236.178668 533.922671,236.493331 533.144,236.888 C532.365329,237.282669 531.517338,237.48 530.6,237.48 C528.359989,237.48 526.57334,236.669341 525.24,235.048 C523.90666,233.426659 523.24,231.25068 523.24,228.52 C523.24,225.767986 523.965326,223.586675 525.416,221.976 C526.866674,220.365325 528.573324,219.56 530.536,219.56 C531.432004,219.56 532.23733,219.735998 532.952,220.088 C533.66667,220.440002 534.151999,220.786665 534.408,221.128 L534.824,221.672 L534.888,221.672 L534.888,213.64 L539.048,213.64 L539.048,237 L535.144,237 Z M554.536,231.144 L557.448,233.704 C555.719991,236.221346 553.384015,237.48 550.44,237.48 C548.071988,237.48 546.141341,236.664008 544.648,235.032 C543.154659,233.399992 542.408,231.229347 542.408,228.52 C542.408,225.810653 543.149326,223.640008 544.632,222.008 C546.114674,220.375992 547.986655,219.56 550.248,219.56 C552.509345,219.56 554.370659,220.375992 555.832,222.008 C557.293341,223.640008 558.024,225.810653 558.024,228.52 L558.024,229.768 L546.632,229.768 C546.696,231.06934 547.05333,232.066663 547.704,232.76 C548.35467,233.453337 549.245328,233.8 550.376,233.8 C551.336005,233.8 552.130664,233.56 552.76,233.08 C553.389336,232.599998 553.981331,231.954671 554.536,231.144 Z M546.632,226.664 L553.992,226.664 C553.885333,225.575995 553.512003,224.728003 552.872,224.12 C552.231997,223.511997 551.357339,223.208 550.248,223.208 C549.223995,223.208 548.38667,223.538663 547.736,224.2 C547.08533,224.861337 546.717334,225.682662 546.632,226.664 Z M561.384,237 L561.384,220.04 L565.384,220.04 L565.384,221.672 L565.448,221.672 C565.917336,221.074664 566.557329,220.573335 567.368,220.168 C568.178671,219.762665 569.031996,219.56 569.928,219.56 C571.805343,219.56 573.277328,220.119994 574.344,221.24 C575.410672,222.360006 575.944,223.91199 575.944,225.896 L575.944,237 L571.784,237 L571.784,226.92 C571.784,225.746661 571.560002,224.86667 571.112,224.28 C570.663998,223.69333 569.896005,223.4 568.808,223.4 C567.783995,223.4 566.984003,223.69333 566.408,224.28 C565.831997,224.86667 565.544,225.650662 565.544,226.632 L565.544,237 L561.384,237 Z M581.128,230.952 L581.128,223.56 L578.504,223.56 L578.504,220.04 L581.224,220.04 L581.224,215.88 L585.16,215.88 L585.16,220.04 L589.448,220.04 L589.448,223.56 L585.224,223.56 L585.224,230.568 C585.224,231.464004 585.373332,232.093332 585.672,232.456 C585.970668,232.818668 586.578662,233 587.496,233 L588.872,233 L588.872,237 L587.112,237 C584.829322,237 583.261338,236.520005 582.408,235.56 C581.554662,234.599995 581.128,233.064011 581.128,230.952 Z M609.416,237.48 C606.535986,237.48 604.194676,236.482677 602.392,234.488 C600.589324,232.493323 599.688,229.48002 599.688,225.448 C599.688,221.906649 600.642657,219.133343 602.552,217.128 C604.461343,215.122657 606.738653,214.12 609.384,214.12 C611.645345,214.12 613.570659,214.80266 615.16,216.168 C616.749341,217.53334 617.703998,219.389322 618.024,221.736 L613.704,222.44 C613.170664,219.559986 611.741345,218.12 609.416,218.12 C607.943993,218.12 606.696005,218.759994 605.672,220.04 C604.647995,221.320006 604.136,223.122655 604.136,225.448 C604.136,228.17868 604.631995,230.199993 605.624,231.512 C606.616005,232.824007 607.879992,233.48 609.416,233.48 C610.802674,233.48 611.895996,233.085337 612.696,232.296 C613.496004,231.506663 613.896,230.39734 613.896,228.968 L609.736,228.968 L609.736,225.288 L618.024,225.288 L618.024,228.264 C618.024,231.101348 617.224008,233.346658 615.624,235 C614.023992,236.653342 611.954679,237.48 609.416,237.48 Z M621.544,237 L621.544,220.04 L625.48,220.04 L625.48,221.832 L625.544,221.832 C625.864002,221.191997 626.338664,220.680002 626.968,220.296 C627.597336,219.911998 628.28533,219.72 629.032,219.72 C629.565336,219.72 630.077331,219.826666 630.568,220.04 L629.928,224.072 C629.458664,223.901332 629.021335,223.816 628.616,223.816 C626.674657,223.816 625.704,225.106654 625.704,227.688 L625.704,237 L621.544,237 Z M637.288,232.392 C637.97067,233.288004 638.909327,233.736 640.104,233.736 C641.298673,233.736 642.23733,233.282671 642.92,232.376 C643.60267,231.469329 643.944,230.184008 643.944,228.52 C643.944,226.855992 643.597337,225.570671 642.904,224.664 C642.210663,223.757329 641.277339,223.304 640.104,223.304 C638.930661,223.304 637.997337,223.751996 637.304,224.648 C636.610663,225.544004 636.264,226.834658 636.264,228.52 C636.264,230.205342 636.60533,231.495996 637.288,232.392 Z M645.8,235.112 C644.306659,236.690675 642.408012,237.48 640.104,237.48 C637.799988,237.48 635.901341,236.690675 634.408,235.112 C632.914659,233.533325 632.168,231.336014 632.168,228.52 C632.168,225.746653 632.935992,223.56 634.472,221.96 C636.008008,220.359992 637.885322,219.56 640.104,219.56 C642.322678,219.56 644.199992,220.359992 645.736,221.96 C647.272008,223.56 648.04,225.746653 648.04,228.52 C648.04,231.336014 647.293341,233.533325 645.8,235.112 Z M651.24,230.984 L651.24,220.04 L655.4,220.04 L655.4,230.536 C655.4,231.602672 655.602665,232.359998 656.008,232.808 C656.413335,233.256002 657.063996,233.48 657.96,233.48 C658.962672,233.48 659.77333,233.218669 660.392,232.696 C661.01067,232.173331 661.32,231.346672 661.32,230.216 L661.32,220.04 L665.48,220.04 L665.48,237 L661.512,237 L661.512,235.368 L661.448,235.368 C660.402661,236.776007 658.930676,237.48 657.032,237.48 C655.069324,237.48 653.613338,236.893339 652.664,235.72 C651.714662,234.546661 651.24,232.96801 651.24,230.984 Z M674.12,226.76 L674.12,230.248 C674.12,231.229338 674.450663,232.055997 675.112,232.728 C675.773337,233.400003 676.658661,233.736 677.768,233.736 C678.984006,233.736 679.981329,233.288004 680.76,232.392 C681.538671,231.495996 681.928,230.205342 681.928,228.52 C681.928,226.834658 681.544004,225.544004 680.776,224.648 C680.007996,223.751996 679.00534,223.304 677.768,223.304 C676.658661,223.304 675.773337,223.639997 675.112,224.312 C674.450663,224.984003 674.12,225.799995 674.12,226.76 Z M669.96,244.2 L669.96,220.04 L673.928,220.04 L673.928,221.672 L673.992,221.672 L674.152,221.432 C674.216,221.336 674.381332,221.170668 674.648,220.936 C674.914668,220.701332 675.207998,220.488001 675.528,220.296 C675.848002,220.103999 676.279997,219.933334 676.824,219.784 C677.368003,219.634666 677.94933,219.56 678.568,219.56 C680.573343,219.56 682.327992,220.365325 683.832,221.976 C685.336008,223.586675 686.088,225.767986 686.088,228.52 C686.088,231.293347 685.362674,233.479992 683.912,235.08 C682.461326,236.680008 680.701344,237.48 678.632,237.48 C678.01333,237.48 677.442669,237.405334 676.92,237.256 C676.397331,237.106666 675.976002,236.930668 675.656,236.728 C675.335998,236.525332 675.058668,236.322668 674.824,236.12 C674.589332,235.917332 674.418667,235.741334 674.312,235.592 L674.184,235.368 L674.12,235.368 L674.12,244.2 L669.96,244.2 Z" id="AWSKRUGUniversityStudentGroup" fill="#FFFFFF" fill-rule="nonzero"></path>
    </g>
</svg>