<?xml version="1.0" encoding="utf-8"?>
<!-- Generator: Adobe Illustrator 25.1.0, SVG Export Plug-In . SVG Version: 6.00 Build 0)  -->
<svg version="1.1" id="레이어_1" xmlns="http://www.w3.org/2000/svg" xmlns:xlink="http://www.w3.org/1999/xlink" x="0px"
	 y="0px" viewBox="0 0 331.2 98.8" style="enable-background:new 0 0 331.2 98.8;" xml:space="preserve">
<style type="text/css">
	.st0{fill:none;stroke:#3B5BDB;stroke-width:7;stroke-linecap:round;}
	.st1{fill-rule:evenodd;clip-rule:evenodd;}
</style>
<desc>Created with Sketch.</desc>
<g id="Group" transform="translate(39.000000, 160.000000)">
	<path id="ausg" d="M98.8-91.3v-4.5h-0.2c-0.2,0.3-0.6,0.8-1,1.2c-0.5,0.5-1.2,1.1-2.2,1.9c-1,0.8-2.3,1.4-4,1.9
		c-1.7,0.5-3.6,0.8-5.6,0.8c-5.3,0-9.3-1.3-12-3.8c-2.7-2.5-4-5.7-4-9.4c0-3.9,1.2-6.8,3.5-8.9c2.3-2,6-3.7,11.3-5l1.6-0.4
		c4.5-1.1,7.4-2.1,8.8-2.9c1.5-0.8,2.3-2,2.3-3.6c0-1.5-0.7-2.8-2.1-3.8c-1.4-1-3.5-1.5-6.2-1.5c-3.1,0-5.4,0.7-6.9,2.1
		c-1.5,1.4-2.5,3.4-3.2,5.8l-8.3-3.2c1-3.9,3-7,6.1-9.5c3.1-2.4,7.1-3.7,12.1-3.7c5.5,0,9.9,1.4,13.3,4.2c3.4,2.8,5.1,7.1,5.1,13.1
		v29.3H98.8z M87.1-110.4c-3.2,0.8-5.3,1.7-6.4,2.7s-1.6,2.3-1.6,3.8c0,3.6,2.5,5.5,7.5,5.5c3.7,0,6.4-0.7,8.3-2.2
		c1.9-1.5,2.8-3.3,2.8-5.4v-9h-0.2c-0.2,0.5-0.5,0.9-0.9,1.2c-0.4,0.3-1.3,0.8-2.9,1.5C92.1-111.8,89.9-111.1,87.1-110.4z
		 M118.7-107.2v-29.3h9.8v28.2c0,3.4,0.6,5.7,1.8,7c1.2,1.3,3.3,2,6.1,2s5.1-0.8,6.8-2.4s2.5-4,2.5-7.3v-27.5h9.8v45.2h-9.4v-4.4
		h-0.2c-2.7,3.8-6.6,5.6-11.7,5.6c-5.2,0-9.1-1.5-11.7-4.5S118.7-101.8,118.7-107.2z M164.9-106.4l8.9-2.1c0.8,6.9,4.5,10.3,11,10.3
		c3,0,5.4-0.5,7.1-1.6c1.7-1.1,2.5-2.5,2.5-4.2c0-1.7-0.8-3-2.3-3.8c-1.5-0.8-4.7-1.9-9.7-3.3l-0.5-0.1c-5.3-1.5-9.2-3.2-11.6-5.2
		c-2.4-2-3.6-4.7-3.6-8c0-3.6,1.5-6.8,4.5-9.4c3-2.6,7.1-4,12.3-4c10,0,16.2,4.4,18.6,13.2l-8.2,2.4c-1.7-5-5.2-7.5-10.4-7.5
		c-2.5,0-4.4,0.5-5.7,1.5c-1.4,1-2.1,2.1-2.1,3.4c0,1.5,0.8,2.6,2.3,3.4l0.3,0.1c1.6,0.7,4.8,1.8,9.8,3.2l1,0.3
		c5.5,1.5,9.2,3.4,11.3,5.5c2,2.2,3,5,3,8.4c0,3.6-1.5,6.8-4.6,9.6c-3.1,2.8-7.6,4.2-13.5,4.2c-6.2,0-11-1.6-14.3-4.7
		C167.5-97.9,165.6-101.8,164.9-106.4z M229.9-137.8c5.3,0,9.4,1.9,12.3,5.6h0.2v-4.4h9.4V-91c0,6.5-1.8,11.6-5.5,15
		c-3.7,3.5-8.5,5.2-14.4,5.2c-4.7,0-8.6-1.1-11.8-3.2c-3.2-2.1-5.5-4.9-6.9-8.4l7.5-4.8c1.2,2.6,2.7,4.6,4.4,5.9c1.7,1.3,4,2,6.9,2
		c3.1,0,5.6-0.9,7.5-2.6c1.8-1.7,2.7-4.3,2.7-7.8v-5.8h-0.2c-1,1.5-2.6,2.8-4.6,3.8c-2.1,1.1-4.4,1.6-7.1,1.6
		c-5.9,0-10.8-2.1-14.6-6.4c-3.9-4.3-5.8-10.1-5.8-17.5c0-7.3,2-13.1,6-17.4C219.6-135.6,224.3-137.8,229.9-137.8z M231.5-129
		c-3.7,0-6.6,1.3-8.8,3.9c-2.2,2.6-3.3,6.3-3.3,11.2c0,4.8,1.1,8.6,3.3,11.2c2.2,2.6,5.1,3.9,8.8,3.9c3.1,0,5.6-0.9,7.5-2.8
		s2.9-4.1,2.9-6.7l0,0v-10.9c0-2.7-1-5-2.9-6.9C237.2-128,234.6-129,231.5-129z"/>
	<path id="r" d="M-31.6-156.1c-0.9,0.2-1.8,1.1-2,2.1c-1.2,5.5-1.2,9.8-1.2,14c0,17.4,9.1,27.9,21.2,35.8v17c0,2.7,2,6,4.4,7.2
		l16.4,8.3c0.5,0.2,1.3,0.4,1.8,0.4c2.1,0,3.9-1.7,4-3.8l0-0.2v-15.6l3.6,1.8c0.6,0.3,1.7,0.6,2.3,0.6c1.2,0,2.9-0.7,3.7-1.6l8.9-9
		c0.9-0.9,1.6-2.6,1.6-3.8c0-0.7-0.2-1.7-0.5-2.4l-1.8-3.6h15.4c2.2,0,4-1.8,4-4c0-0.5-0.2-1.3-0.4-1.8l-8.2-16.6
		c-1.2-2.4-4.2-4.3-6.8-4.4l-0.3,0H17.6l-0.6-0.9C9.5-148.3-0.7-157-17.1-157.3l-0.6,0C-21.9-157.3-26.1-157.3-31.6-156.1z
		 M7.7-93.5v16l-14.5-7.3c-0.8-0.4-1.5-1.5-1.5-2.4v-14.3L7.7-93.5L7.7-93.5z M34.5-130.4c0.9,0,2,0.7,2.4,1.5l7.2,14.6H28.2
		l-7.9-16.1l0,0H34.5z M13.2-132.8l5.4,11.1c3.4,6.8,7.1,14.5,9.2,18.8l-8.9,9l-29.6-14.8l0,0c-13-8.4-18.8-18.1-18.8-31.3l0-1.4
		c0-3.1,0.1-6.2,0.7-9.8c4.1-0.7,7.5-0.7,11.1-0.7C-4.7-151.9,4.8-146,13.2-132.8z M-21.5-133.1c0,5.9,4.8,10.8,10.6,10.8
		s10.6-4.8,10.6-10.8c0-5.9-4.8-10.8-10.6-10.8C-16.7-143.8-21.5-139-21.5-133.1z M-5.6-133.1c0,3-2.4,5.4-5.3,5.4s-5.3-2.4-5.3-5.4
		c0-3,2.4-5.4,5.3-5.4S-5.6-136-5.6-133.1z"/>
	<path id="Path-2" class="st0" d="M32.7-88.8c12,12,77.9,44.1,168.7-7.1s103.6-6.2,64.3,5.1"/>
	<path id="Combined-Shape" class="st1" d="M229.9-138.8c3.5,0,7.5,2.2,11.9,6.5l-0.2,9.3c-0.4-1.5-1.3-2.9-2.5-4.1
		c-1.9-1.9-4.4-2.9-7.6-2.9c-3.6,0-6.6,1.3-8.7,3.9s-3.3,6.4-3.3,11.2c0,4.9,1.1,8.6,3.2,11.2c2.2,2.6,5.1,3.9,8.8,3.9
		c3.1,0,5.6-0.9,7.5-2.8c0.9-0.8,1.6-1.8,2-2.8l-0.2,9.3c-1,1.5-1.6,2.4-3.7,3.5c-2,1.1-4.4,1.6-7.1,1.6c-5.9,0-10.7-2.1-14.5-6.4
		c-3.8-4.3-5.8-10.1-5.8-17.6c0-7.3,2-13.1,5.9-17.5C219.6-136.6,224.3-138.8,229.9-138.8z"/>
</g>
</svg>
